<svg width="40" height="41" viewBox="0 0 40 41" fill="none" xmlns="http://www.w3.org/2000/svg">
<path d="M17.5 12.8455H14.1667C13.7246 12.8455 13.3007 13.0211 12.9882 13.3336C12.6756 13.6462 12.5 14.0701 12.5 14.5121V17.8455M17.5 12.8455H25.8333C26.2754 12.8455 26.6993 13.0211 27.0118 13.3336C27.3244 13.6462 27.5 14.0701 27.5 14.5121V17.8455M17.5 12.8455V27.8455M12.5 17.8455V26.1788C12.5 26.6208 12.6756 27.0447 12.9882 27.3573C13.3007 27.6699 13.7246 27.8455 14.1667 27.8455H17.5M12.5 17.8455H27.5M27.5 17.8455V26.1788C27.5 26.6208 27.3244 27.0447 27.0118 27.3573C26.6993 27.6699 26.2754 27.8455 25.8333 27.8455H17.5" stroke="#F2F2F2" stroke-width="2" stroke-linecap="round" stroke-linejoin="round"/>
</svg>
